<?xml version="1.0" encoding="utf-8"?>
<!DOCTYPE svg PUBLIC "-//W3C//DTD SVG 1.0//EN" "http://www.w3.org/TR/2001/REC-SVG-20010904/DTD/svg10.dtd">
<svg version="1.0" xmlns="http://www.w3.org/2000/svg" width="305px" height="62px" viewBox="0 0 305 62" preserveAspectRatio="xMidYMid meet">
 <g fill="#fbfafa">
  <path d="M0 31 l0 -31 35.25 0 35.25 0 0 1.20 c0 0.70 -0.25 1.40 -0.50 1.55 -0.40 0.25 -0.35 0.55 0.05 1.05 0.45 0.55 0.75 0.60 1.30 0.15 0.50 -0.45 0.55 -0.75 0.15 -1.15 -0.25 -0.25 -0.50 -1 -0.50 -1.65 l0 -1.15 117 0 117 0 0 31 0 31 -152.50 0 -152.50 0 0 -31z m70.70 19.45 c0.80 -0.25 2.65 -0.45 4.15 -0.45 1.45 0 3.40 -0.30 4.35 -0.70 2.55 -1.05 5.35 -3.80 6.55 -6.40 1 -2.10 1.10 -3 0.85 -7.15 -0.25 -4.65 -0.20 -4.85 1.05 -6.15 1.55 -1.60 3.30 -5.35 3.35 -7.05 0.05 -4.45 -4.65 -10.35 -9.40 -11.75 -2.45 -0.70 -2.80 -0.70 -5.95 0.30 l-3.30 1.05 -6.30 -1 c-6.85 -1.05 -8.65 -0.90 -12.45 1 -2.70 1.30 -6.35 5.20 -7.60 8 -1.75 3.90 -1.75 5.65 0 11.90 2.05 7.15 3.40 9.75 7.05 13.20 5.35 5.15 11.85 7.05 17.65 5.20z m138.45 -11.05 c-0.80 -3.30 -0.55 -8.60 0.45 -9.75 0.30 -0.35 1.10 -0.65 1.85 -0.70 l1.30 -0.05 -1.25 -0.35 c-1.15 -0.35 -1.25 -0.55 -1.25 -3.65 0 -4.05 0.60 -4.90 3.70 -4.95 l2.30 -0.05 -2.15 -0.50 c-1.60 -0.35 -2.25 -0.80 -2.60 -1.70 -1 -2.55 -2.50 -0.70 -2.50 3.15 0 1.30 -0.25 4 -0.55 5.90 -0.80 5.50 -0.65 12.40 0.25 14.20 0.45 0.85 0.90 1.55 1 1.55 0.10 0 -0.15 -1.40 -0.55 -3.10z m41.85 -2.10 c0 -2.60 -0.30 -2.15 -0.65 0.90 -0.15 1.50 -0.05 2.15 0.20 1.75 0.25 -0.40 0.45 -1.60 0.45 -2.65z m-48.25 -4.45 c0.15 -1.40 0.65 -4.55 1 -6.95 0.40 -2.40 0.55 -4.75 0.35 -5.25 -0.25 -0.65 -0.40 -0.40 -0.60 1.10 l-0.25 2 -2.75 0.30 c-1.50 0.20 -3.30 0.60 -4 0.85 -0.95 0.45 -0.45 0.50 2.40 0.25 l3.60 -0.30 0 3.60 c0 5 -0.35 5.55 -3.90 5.60 l-2.85 0.05 2.60 0.60 c1.40 0.30 2.75 0.70 2.95 0.90 0.65 0.70 1.10 -0.10 1.45 -2.75z m-15.30 1.95 c0.95 -1.10 -0.60 -1.40 -7.30 -1.35 l-6.15 0.05 0 -1.75 c0 -0.95 -0.15 -1.75 -0.30 -1.75 -0.45 0 -5.70 4.65 -5.70 5.10 0 0.20 4.25 0.40 9.45 0.40 7.40 0 9.55 -0.15 10 -0.70z m96.75 -2.15 c0.20 -1.60 0.65 -4.60 1.05 -6.65 0.40 -2.05 0.55 -4.30 0.35 -5 -0.30 -1.10 -0.35 -1.05 -0.60 0.75 l-0.25 2 -2.75 0.30 c-2.55 0.30 -5.50 1.15 -5.50 1.60 0 0.15 0.95 0.05 2.15 -0.20 1.15 -0.20 2.85 -0.40 3.75 -0.45 l1.60 0 0 3.90 c0 2.35 -0.25 4.15 -0.60 4.50 -0.35 0.35 -1.75 0.65 -3.10 0.65 l-2.55 0.05 2.50 0.65 c3.75 0.95 3.65 1 3.95 -2.10z m-26.65 -1.70 l-0.15 -3.45 1.85 0 c1.55 0 2.35 0.50 5.40 3.25 1.95 1.75 3.65 3.15 3.75 3 0.15 -0.10 -1.60 -1.95 -3.85 -4.05 -3.45 -3.20 -4.05 -4.05 -4.05 -5.40 0 -0.90 0.30 -1.95 0.65 -2.30 0.50 -0.65 0.50 -0.65 -0.10 -0.10 -0.40 0.30 -1.50 0.60 -2.40 0.60 -1.55 0 -1.65 -0.10 -1.65 -1.60 0 -2 -0.80 -3.55 -1.20 -2.40 -1.15 3.55 0.20 17.70 1.60 16.30 0.15 -0.20 0.25 -1.90 0.15 -3.85z m-129.90 -3.80 c-0.25 -9.10 -0.30 -9.15 -2.30 -9.10 -1.45 0.05 -1.50 0.10 -0.40 0.40 1.55 0.40 2.10 2.20 2 6.55 -0.10 6.75 0.05 9.55 0.50 9.30 0.25 -0.15 0.35 -3.40 0.20 -7.15z m107.50 0 c-0.25 -9.10 -0.30 -9.15 -2.30 -9.10 -1.20 0.05 -1.30 0.15 -0.45 0.30 1.55 0.30 2.15 2.15 2.10 6.40 -0.15 6.70 0 9.80 0.40 9.55 0.25 -0.15 0.35 -3.35 0.25 -7.15z m15.20 -0.25 c0 -4.60 0.20 -8.20 0.55 -9 0.60 -1.40 0.05 -1.95 -1.80 -1.85 -0.55 0 -0.60 0.10 -0.20 0.30 0.95 0.35 0.70 5.10 -0.35 7.50 -0.90 1.95 -0.90 2.05 -0.10 2.30 0.90 0.20 1.55 3 1.55 6.65 0 0.95 0.10 1.70 0.20 1.70 0.10 0 0.15 -3.45 0.15 -7.60z m-58 2.25 c-0.15 -0.50 -0.25 -0.10 -0.25 0.85 0 0.95 0.10 1.35 0.25 0.90 0.10 -0.50 0.10 -1.30 0 -1.75z m-90.95 0 c-0.10 -0.45 -0.55 -1.05 -1.05 -1.35 -0.75 -0.45 -1.05 -0.35 -1.65 0.40 -0.60 0.85 -0.60 1.10 0.10 1.85 0.65 0.70 1.05 0.80 1.80 0.40 0.55 -0.30 0.90 -0.85 0.80 -1.30z m20.30 0 c0.95 -1.15 0.95 -1.15 -0.10 -1.15 -0.85 0 -1.10 0.30 -1.10 1.35 0 0.70 0.05 1.20 0.15 1.10 0.05 -0.10 0.55 -0.70 1.05 -1.30z m107.50 0 c0.95 -1.15 0.95 -1.15 -0.10 -1.15 -0.85 0 -1.10 0.30 -1.10 1.35 0 0.70 0.05 1.20 0.15 1.10 0.05 -0.10 0.55 -0.70 1.05 -1.30z m-9.05 -5.20 c0.15 -0.50 -0.15 -1.45 -0.70 -2.10 l-0.90 -1.10 -0.05 2.55 c0 1.35 -0.30 2.80 -0.60 3.20 -0.35 0.40 -0.05 0.20 0.70 -0.45 0.70 -0.60 1.40 -1.55 1.55 -2.10z m-70.40 0.60 c1.40 -0.30 1.35 -0.35 -0.95 -0.70 -3.50 -0.50 -6.60 -0.45 -6 0.10 0.90 0.90 4.35 1.20 6.95 0.60z m-32.25 -1.15 c0 -0.80 -0.15 -0.95 -0.55 -0.55 -0.30 0.30 -0.40 0.80 -0.25 1.10 0.55 0.85 0.80 0.65 0.80 -0.55z m107.50 0 c0 -0.80 -0.15 -0.95 -0.55 -0.55 -0.30 0.30 -0.40 0.80 -0.25 1.10 0.55 0.85 0.80 0.65 0.80 -0.55z m16.50 -1.25 c-0.05 -1.40 -0.15 -1.70 -0.50 -1.10 -0.40 0.70 -0.15 2.95 0.30 2.95 0.10 0 0.20 -0.85 0.20 -1.85z m-59.30 -1.85 c2.60 -4.15 3.10 -5.65 2.10 -6.75 -2.15 -2.35 -14.90 -4.15 -16.70 -2.30 -0.70 0.70 1.35 1.25 4.80 1.25 3.75 0 7.85 0.75 9 1.65 1 0.80 0.70 4.20 -0.70 6.90 -1.60 3.15 -0.65 2.70 1.50 -0.75z m17.05 -1.80 c2.80 -0.30 2.90 -0.35 1.65 -0.85 -1.55 -0.70 -4.70 -0.05 -5.90 1.20 -0.65 0.70 -0.65 0.75 0.25 0.40 0.55 -0.25 2.35 -0.55 4 -0.75z m81.50 0 c2.80 -0.30 2.90 -0.35 1.65 -0.85 -1.50 -0.65 -4.10 -0.15 -5.65 1.15 -1 0.75 -1 0.80 0 0.40 0.55 -0.20 2.35 -0.50 4 -0.70z"/>
 </g>
 <g fill="#f7be67">
  <path d="M43.70 50.30 c-0.60 -1.55 0 -2.55 1.55 -2.55 1.35 0 1.50 0.15 1.50 1.50 0 1.25 -0.20 1.50 -1.40 1.65 -0.85 0.10 -1.45 -0.10 -1.65 -0.60z"/>
  <path d="M166.35 36.50 c-1.50 -1.25 -0.75 -2.55 3.85 -6.45 5 -4.25 7.25 -6.90 9.10 -10.70 1.25 -2.50 1.30 -2.95 0.70 -3.55 -1.15 -1 -5 -1.80 -9.10 -1.80 -4 0 -5.90 -0.80 -5.90 -2.50 0 -2.50 4.80 -3.45 11.55 -2.30 5.90 1.05 7.90 1.65 9.35 2.95 1.30 1.20 1.35 1.60 0.30 4.70 -1.15 3.30 -3.45 6.75 -7.40 10.95 -1.80 2 -3.30 3.75 -3.30 3.90 0 0.15 2.75 0.20 6.15 0.15 6.70 -0.10 8.35 0.35 8.35 2.35 0 2.45 -0.95 2.70 -12.20 2.90 -9 0.15 -10.60 0.05 -11.45 -0.60z"/>
  <path d="M87 28.40 c0.05 -2.70 1.20 -4.25 3.65 -4.65 1.60 -0.30 1.85 -0.25 1.85 0.55 0 0.55 -0.55 2.15 -1.25 3.60 -1.05 2.30 -1.40 2.60 -2.75 2.60 -1.45 0 -1.50 -0.10 -1.50 -2.10z"/>
  <path d="M85 21.75 c0 -1.50 0.15 -1.75 1.20 -1.75 0.95 0 1.25 -0.30 1.40 -1.35 0.15 -1.20 0.40 -1.40 2.05 -1.55 1.75 -0.15 1.85 -0.10 1.85 1.35 0 2.25 -0.50 3.05 -1.80 3.05 -0.85 0 -1.20 0.30 -1.20 1 0 0.80 -0.35 1 -1.75 1 -1.65 0 -1.75 -0.10 -1.75 -1.75z"/>
  <path d="M75.50 9.80 c0 -0.75 1.50 -1.30 3.65 -1.30 1 0 1.35 0.25 1.35 1 0 0.85 -0.35 1 -2.50 1 -1.80 0 -2.50 -0.20 -2.50 -0.70z"/>
 </g>
 <g fill="#eab56e">
  <path d="M45.65 50.50 c1 -0.65 1.15 -1.80 0.25 -2.15 -0.35 -0.10 -0.50 -0.40 -0.25 -0.60 0.60 -0.70 1.45 0.55 1.25 1.80 -0.10 0.75 -0.55 1.25 -1.15 1.35 -0.90 0.10 -0.90 0.10 -0.10 -0.40z"/>
  <path d="M179.65 36.65 c1.30 -0.10 3.35 -0.10 4.50 0 1.15 0.10 0.10 0.15 -2.40 0.15 -2.45 0 -3.40 -0.05 -2.10 -0.15z"/>
  <path d="M189.35 35 c0.50 -1.80 -0.70 -2.50 -4.55 -2.60 l-3.55 -0.10 3.35 -0.15 c1.85 -0.10 3.85 0.05 4.40 0.35 1 0.55 1.40 2.70 0.55 3.20 -0.25 0.20 -0.35 -0.15 -0.20 -0.70z"/>
  <path d="M86.25 31.15 c-0.85 -6.15 -2.10 -8.85 -6.05 -13.10 -1.90 -2.05 -3.75 -3.50 -6 -4.55 -1.75 -0.80 -3.20 -1.80 -3.20 -2.20 0 -0.40 1.05 -1 2.65 -1.45 6.90 -2.05 10.60 -1.30 14.90 3.10 2 2 2.95 3.45 3.40 5.20 1.25 4.45 -0.10 10.50 -2.90 13.05 -0.60 0.55 -1.05 1.25 -1.05 1.65 0 0.35 -0.30 0.65 -0.70 0.65 -0.50 0 -0.85 -0.80 -1.05 -2.35z m4.05 -3.35 c0.85 -1.80 0.05 -2.65 -0.95 -1.10 -0.50 0.70 -0.85 1.50 -0.85 1.80 0 0.95 1.25 0.50 1.80 -0.70z"/>
  <path d="M190.90 33.20 c-0.25 -0.20 -0.40 -0.80 -0.40 -1.40 0 -0.70 0.15 -0.85 0.55 -0.45 0.30 0.30 0.45 0.95 0.35 1.40 -0.05 0.45 -0.30 0.65 -0.50 0.45z"/>
  <path d="M173.25 27.60 c1.90 -2 3.55 -3.60 3.65 -3.60 0.40 0 -1.90 2.50 -4.40 4.75 -2.35 2.10 -2.25 1.95 0.75 -1.15z"/>
  <path d="M179.50 26.30 c0 -0.20 0.85 -1.40 1.95 -2.70 1.05 -1.30 2.30 -3.10 2.80 -4 0.45 -0.95 0.95 -1.55 1.10 -1.40 0.40 0.40 -2.85 5.60 -4.45 7.15 -0.80 0.75 -1.40 1.15 -1.40 0.95z"/>
  <path d="M186.55 14.25 c0 -0.60 -0.25 -1.30 -0.55 -1.65 -0.25 -0.35 -0.15 -0.30 0.30 0.10 0.45 0.35 0.70 1.10 0.55 1.60 -0.20 0.85 -0.25 0.85 -0.30 -0.05z"/>
  <path d="M167 13.60 c0 -0.25 0.70 -0.35 1.50 -0.20 0.85 0.10 1.50 0.30 1.50 0.40 0 0.10 -0.65 0.20 -1.50 0.20 -0.80 0 -1.50 -0.20 -1.50 -0.40z"/>
  <path d="M165.10 10.90 c0.10 -0.30 0.75 -0.90 1.45 -1.35 l1.20 -0.75 -1.20 1.35 c-1.30 1.45 -1.75 1.70 -1.45 0.75z"/>
  <path d="M179.65 10.15 c0.45 -0.10 1.25 -0.10 1.75 0 0.45 0.15 0.05 0.25 -0.90 0.25 -0.95 0 -1.35 -0.10 -0.85 -0.25z"/>
 </g>
 <g fill="#8356f9">
  <path d="M68.40 51.95 c-0.55 -0.30 -0.90 -1.10 -0.90 -1.95 0 -1.35 -0.15 -1.50 -1.50 -1.50 -1.70 0 -3 -1.90 -3 -4.50 0 -1.35 0.15 -1.50 1.65 -1.50 1.25 0 1.80 0.30 2.50 1.55 0.45 0.85 0.85 2.10 0.85 2.75 0 0.95 0.25 1.20 1.20 1.20 1.55 0 4.80 1.85 4.80 2.75 0 0.65 -2.50 1.75 -3.95 1.75 -0.45 0 -1.20 -0.25 -1.65 -0.55z"/>
  <path d="M208.60 44.15 c-1.95 -0.80 -2.85 -6.75 -2.10 -14.15 0.30 -2.60 0.65 -6.65 0.80 -9 0.40 -5.20 1.15 -6.60 3.35 -6.40 1.15 0.10 1.75 0.50 2.25 1.50 0.50 1.05 1.20 1.45 3.15 1.85 3.30 0.70 4.30 1.30 5.40 3.05 l0.85 1.45 0.85 -1.45 c1.10 -1.85 6.20 -4.35 9.70 -4.80 2.20 -0.25 2.60 -0.20 3.05 0.60 0.25 0.55 0.60 4.90 0.75 9.75 0.30 8.10 0.25 8.90 -0.60 9.65 -2.20 2 -3.70 0.50 -3.25 -3.30 0.25 -2.25 0.20 -2.80 -0.50 -3.05 -0.60 -0.25 -1.50 0.60 -3.35 3.15 -2.65 3.65 -3.65 4.50 -5.45 4.50 -1.85 0 -1.65 -1.40 0.70 -4.75 1.25 -1.80 2.30 -3.45 2.30 -3.60 0 -0.15 -0.90 -1.05 -2 -2 -1.10 -0.95 -2 -2.10 -2 -2.55 -0.05 -0.45 -0.45 -0.05 -0.90 0.90 -1.10 2.25 -3.50 3.80 -7 4.55 -1.55 0.35 -3.10 0.80 -3.40 1.05 -1.40 1.05 -1 7.35 0.65 10.55 0.55 1.10 0.60 1.60 0.10 2.15 -0.55 0.70 -2.10 0.85 -3.35 0.35z m6.85 -18.45 c2.55 -2.10 1.95 -4.20 -1.20 -4.20 -1.35 0 -2.05 0.75 -2.50 2.65 -0.75 3 1.10 3.75 3.70 1.55z m17.45 -1 c0.20 -2.60 -0.60 -4.70 -1.80 -4.70 -1.45 0 -4.35 2.15 -4.50 3.30 -0.20 1.25 0.75 2.10 3.25 3 2.55 0.90 2.85 0.70 3.05 -1.60z"/>
  <path d="M244.35 43.80 c-2.35 -0.85 -3.20 -1.60 -4.20 -3.50 -0.90 -1.75 -0.60 -6 0.60 -8.30 0.70 -1.35 2.55 -3 3.35 -3 0.65 0 0.45 2.80 -0.40 4.75 -0.90 2.25 -0.65 3.65 1.10 5.70 2.95 3.50 4.45 0.90 3.65 -6.35 -0.25 -2.40 -0.55 -4.60 -0.70 -4.95 -0.10 -0.40 -1.05 -0.50 -2.85 -0.30 -2.45 0.25 -2.75 0.15 -4.10 -1.25 -1.75 -1.90 -2.30 -5.20 -1.15 -7.45 1.75 -3.30 8 -5.85 11.60 -4.65 0.95 0.30 1.85 0.80 2.05 1.05 0.15 0.25 -0.10 1.55 -0.50 2.85 -1 3 -1.20 7.45 -0.60 15.90 l0.40 6.55 -1.40 1.55 c-1.75 1.80 -4.20 2.30 -6.85 1.40z m2.55 -21.30 c1.95 -3.95 1.15 -5.80 -1.80 -3.95 -1.90 1.10 -2.45 2.90 -1.60 5 0.85 2.05 2 1.70 3.40 -1.05z"/>
  <path d="M45.75 37.90 c-0.10 -0.35 -0.80 -2.75 -1.55 -5.35 -2.15 -7.70 -1.20 -13.25 3.10 -18.05 2.60 -2.85 5.10 -4.35 8.80 -5.30 2.85 -0.75 3.55 -0.75 8.60 0 7.20 1.10 7.30 1.15 7.30 2.60 0 1 -0.25 1.20 -1.40 1.20 -0.80 0 -2.15 -0.35 -3 -0.75 -1.85 -0.95 -8.10 -1.60 -8.10 -0.90 0 0.30 -1.25 1.15 -2.80 1.95 -2.95 1.50 -7.40 5.55 -7.95 7.15 -0.15 0.55 -0.80 1.05 -1.40 1.15 -1.05 0.15 -1.10 0.45 -1.25 4.55 -0.10 3.85 0 4.70 1.15 6.90 0.70 1.40 1.25 3.20 1.25 4 0 1.20 -0.20 1.45 -1.25 1.45 -0.70 0 -1.35 -0.30 -1.50 -0.60z"/>
  <path d="M200.50 37.55 c-0.65 -0.55 -2.25 -1.10 -3.50 -1.30 -5.10 -0.75 -7.50 -3.55 -6.70 -7.75 0.40 -1.75 2.70 -4.30 4.65 -5.10 0.70 -0.30 2.55 -0.65 4.05 -0.85 2.30 -0.25 2.75 -0.45 2.75 -1.30 0 -1.40 -1.85 -1.55 -5.05 -0.45 -2.95 1 -4.20 0.55 -4.20 -1.55 0 -1.45 1.25 -2.50 3.75 -3.20 4.20 -1.15 7.50 -0.20 9 2.65 1 1.80 0.95 2.35 -0.50 12.30 -1.15 7.80 -1.65 8.55 -4.25 6.55z m0 -6 c0.25 -0.55 0.50 -1.90 0.50 -3 l0 -2.05 -2.10 0.30 c-4.40 0.60 -6.40 3.60 -3.30 4.95 2.35 1 4.25 0.95 4.90 -0.20z"/>
  <path d="M282.45 37.70 c-0.45 -0.40 -2.30 -1.10 -4.20 -1.55 -6.05 -1.40 -8.20 -4.90 -5.60 -9.30 1.55 -2.60 3.85 -3.85 7.85 -4.30 2.30 -0.25 2.75 -0.45 2.75 -1.30 0 -1.40 -1.85 -1.55 -5.05 -0.45 -3.05 1 -4.20 0.55 -4.20 -1.75 0 -1.65 2.35 -2.95 6 -3.40 5.70 -0.65 8.85 3.95 7 10.35 -0.30 0.95 -0.75 3.75 -1 6.20 -0.70 6.05 -1.60 7.45 -3.55 5.50z m-0.55 -5.80 c0.35 -0.35 0.60 -1.70 0.60 -3.05 0 -2.05 -0.15 -2.40 -0.85 -2.20 -0.50 0.15 -1.70 0.40 -2.70 0.55 -2.30 0.40 -3.90 2 -3.15 3.20 1.15 1.85 4.85 2.75 6.10 1.50z"/>
  <path d="M114.70 36.80 c-0.20 -0.45 0.65 -2.10 2 -4.05 1.25 -1.80 2.30 -3.45 2.30 -3.60 0 -0.15 -0.90 -1.05 -2 -2 -1.65 -1.45 -2 -2.05 -2 -3.60 0 -1.45 0.35 -2.20 1.65 -3.45 1.90 -1.85 5.25 -3.40 8.40 -3.85 3.65 -0.55 3.75 -0.30 4.10 10.05 0.30 7.80 0.25 9 -0.50 9.80 -0.95 1.05 -2.30 1.15 -3.10 0.20 -0.30 -0.40 -0.50 -1.95 -0.45 -3.60 0.20 -4 -0.55 -3.85 -4.05 0.80 -2.35 3.15 -3.10 3.80 -4.45 3.90 -1.10 0.10 -1.70 -0.10 -1.90 -0.60z m10.70 -11.05 c0.35 -1.70 -0.45 -5.30 -1.25 -5.60 -0.40 -0.15 -1.75 0.20 -2.95 0.75 -1.70 0.85 -2.20 1.35 -2.20 2.30 0 1.40 0.85 2.20 3.35 3.10 2.25 0.80 2.85 0.70 3.05 -0.55z"/>
  <path d="M256.15 37.10 c-1 -0.60 -1.55 -2.75 -2.15 -7.90 -0.70 -6.40 -0.20 -12.05 1.10 -12.75 2 -1.05 3.10 0 3.50 3.40 0.15 1.10 0.20 1.10 2.35 -0.60 2.30 -1.85 4.80 -2.30 5.95 -1.15 1.05 1.05 0.65 1.85 -2.25 3.95 l-2.85 2.10 4.60 4.40 c2.55 2.40 4.60 4.70 4.60 5.10 0 0.35 -0.55 1.20 -1.25 1.85 -1.45 1.40 -1.75 1.25 -6.85 -3.45 -1.80 -1.65 -3.45 -3.05 -3.65 -3.05 -0.20 0 -0.15 1.45 0 3.25 0.30 2.75 0.25 3.45 -0.50 4.25 -0.95 1.05 -1.65 1.20 -2.60 0.60z"/>
  <path d="M38 32.25 c-0.90 -1.05 -0.20 -2.35 1.10 -2.15 1.45 0.20 1.75 1.70 0.50 2.35 -0.75 0.40 -1.15 0.35 -1.60 -0.20z"/>
  <path d="M142.25 25.95 c-2.70 -0.65 -3.05 -1.15 -2.05 -2.65 0.80 -1.30 0.80 -1.30 8.05 -1.20 4 0 7.40 0.25 7.55 0.45 0.50 0.80 -0.80 2.35 -2.40 2.95 -2.25 0.80 -8.70 1.05 -11.15 0.45z"/>
 </g>
 <g fill="#cb9b66">
  <path d="M83.45 32.10 c-1.55 -1.35 -3.85 -2.80 -5.05 -3.25 -2.10 -0.80 -2.30 -1.05 -2.60 -3 -0.60 -3.90 -1.90 -6.95 -4.10 -9.65 -1.35 -1.60 -2.20 -3.20 -2.20 -3.95 0 -0.75 0.20 -1.20 0.50 -1 0.25 0.15 0.50 0.10 0.50 -0.20 0 -0.25 -0.30 -0.60 -0.60 -0.70 -0.35 -0.15 0.05 -0.20 0.85 -0.15 3.05 0.30 8.05 3.20 11.05 6.45 3.35 3.60 4.95 6.80 5.65 11.35 1.20 7.35 0.55 8 -4 4.10z"/>
 </g>
 <g fill="#e16a66">
  <path d="M75 50.35 c0 -0.75 0.55 -1.45 1.60 -2.10 2.15 -1.25 4.50 -3.80 7 -7.60 1.10 -1.75 2.25 -3.15 2.45 -3.15 0.25 0 0.30 -0.35 0.15 -0.75 -0.20 -0.50 -0.55 -0.60 -1.10 -0.30 -1.40 0.70 -6.70 1.10 -9.10 0.70 -2.15 -0.40 -2.25 -0.50 -2.40 -2.35 -0.10 -1.10 0.15 -2.90 0.55 -4 1.35 -3.75 1.50 -5.75 0.50 -9.15 -0.50 -1.70 -1.05 -3.15 -1.25 -3.15 -0.25 0 -0.40 -0.40 -0.40 -0.95 0 -0.50 -0.45 -1.05 -1 -1.20 -0.80 -0.20 -1 -0.65 -1 -2.20 l0.05 -1.90 2 2.25 c2.10 2.45 3.65 5.90 4.20 9.60 0.35 2.20 0.50 2.35 2.80 3.35 1.35 0.55 3.65 2.05 5.15 3.35 l2.70 2.30 0.35 4.10 c0.30 3.60 0.20 4.45 -0.75 6.70 -1.90 4.40 -6.30 7.60 -10.50 7.60 -1.75 0 -2 -0.15 -2 -1.15z"/>
  <path d="M91.70 36.30 c-0.50 -1.30 0.20 -2.40 1.40 -2.20 0.85 0.10 1.15 0.50 1.15 1.40 0 0.90 -0.30 1.30 -1.15 1.40 -0.65 0.10 -1.25 -0.15 -1.40 -0.60z"/>
  <path d="M69.10 5.70 c-1.25 -0.85 -1.50 -3.40 -0.40 -4.80 1.10 -1.45 3.45 -1.15 4.45 0.55 1.10 1.85 1.05 2.70 0 3.65 -1.45 1.25 -2.85 1.45 -4.05 0.60z"/>
 </g>
 <g fill="#c7607f">
  <path d="M68.75 51.70 c-2.25 -1.15 -3.45 -2.45 -5.05 -5.35 -1.25 -2.30 -1.40 -3.10 -1.40 -7.10 0 -3.65 0.20 -4.90 1.05 -6.55 2.40 -4.50 5.85 -7.15 9.40 -7.20 2.70 -0.05 2.90 -0.50 1.75 -3.65 -0.55 -1.50 -1.50 -3.35 -2 -4 -0.55 -0.70 -1 -1.40 -1 -1.60 0 -0.20 -0.55 -0.80 -1.25 -1.35 -0.95 -0.75 -1.25 -1.45 -1.25 -2.95 0 -1.80 0.10 -2 1.15 -1.85 0.75 0.10 1.05 0.45 0.95 1.05 -0.10 0.45 0.85 2.15 2.05 3.75 3.10 3.95 4.80 9.50 3.85 12.40 -0.45 1.35 -0.85 1.70 -1.90 1.70 -2.75 0 -5.70 2.45 -8.05 6.65 -1.40 2.50 -1.35 2.85 0.45 2.85 1.70 0 3.70 -1.10 5.35 -3 1 -1.15 1.20 -1.20 2.20 -0.55 1.90 1.15 7.10 0.80 9.70 -0.60 1.25 -0.75 2.35 -1.05 2.55 -0.80 0.55 0.95 0.90 6.10 0.30 5.80 -0.30 -0.20 -1.15 0.70 -2 2 -2.10 3.45 -4.95 6.70 -7.05 8.10 -1 0.70 -1.90 1.40 -2.05 1.60 -0.35 0.50 -3.65 0.70 -4.40 0.25 -0.40 -0.25 -0.55 -0.15 -0.50 0.25 0.20 0.95 -1.15 1.05 -2.85 0.15z"/>
  <path d="M44.50 31.75 c0 -0.40 -0.20 -0.75 -0.45 -0.75 -0.20 0 -0.15 -0.95 0.15 -2.05 0.50 -1.85 0.55 -1.95 0.85 -0.90 0.55 1.90 0.50 4.45 -0.05 4.45 -0.25 0 -0.50 -0.35 -0.50 -0.75z"/>
  <path d="M43.40 23.70 c-0.25 -0.95 0.55 -2.70 1.30 -2.70 0.15 0 0.30 0.85 0.25 1.90 0 1.45 -0.10 1.60 -0.40 0.85 l-0.40 -1 -0.25 1 c-0.20 1 -0.20 1 -0.50 -0.05z"/>
  <path d="M49.45 12.55 c0.50 -0.50 1.40 -1.10 2 -1.30 0.60 -0.15 1.05 -0.55 1.05 -0.80 0 -0.30 0.15 -0.40 0.40 -0.30 0.20 0.15 0.90 0 1.60 -0.30 0.70 -0.25 1.75 -0.45 2.40 -0.40 0.60 0.05 1.10 -0.15 1.10 -0.45 0 -0.35 0.30 -0.40 0.95 0 0.55 0.25 1.65 0.50 2.50 0.50 0.85 0 1.55 0.25 1.55 0.55 0 0.45 -1.05 0.50 -3.55 0.30 -3.95 -0.35 -5.65 0.10 -7.35 1.95 -0.65 0.65 -1.70 1.20 -2.35 1.20 -1.25 0 -1.25 0 -0.30 -0.95z"/>
 </g>
 <g fill="#446deb">
  <path d="M62.40 52.50 c-7.35 -1.30 -14.55 -7.65 -16.65 -14.70 -0.75 -2.40 -0.50 -4.30 0.45 -4.30 0.35 0 1.35 0.90 2.20 1.95 1.05 1.30 2.90 2.65 5.30 3.85 3.15 1.50 4.20 1.80 6.90 1.80 l3.20 0 0.65 2.30 c0.45 1.65 1.35 3.05 3.30 5 1.50 1.50 2.95 2.55 3.20 2.35 0.30 -0.15 0.55 -0.05 0.55 0.25 0 0.30 0.30 0.40 0.65 0.20 0.30 -0.20 0.25 0 -0.15 0.45 -0.90 1 -6.25 1.45 -9.60 0.85z"/>
  <path d="M97.40 31.65 c-1.25 -1.45 -1.45 -2.65 -0.65 -4.10 1.15 -2.30 3.30 -2.70 5.45 -1 2.60 2.05 1.05 5.95 -2.35 5.95 -1 0 -2 -0.35 -2.45 -0.85z"/>
  <path d="M66.65 11.65 c-0.65 -0.10 -1.15 -0.50 -1.15 -0.90 0 -0.75 2.20 -1.45 2.40 -0.75 0.10 0.30 0.80 0.40 1.50 0.25 0.75 -0.15 1.05 -0.10 0.70 0.05 -0.50 0.25 -0.50 0.45 -0.05 1 0.45 0.55 0.30 0.70 -0.85 0.65 -0.80 -0.05 -1.95 -0.20 -2.55 -0.30z"/>
 </g>
 <g fill="#cc5776">
  <path d="M63.05 42.05 c-1.05 -0.70 -0.45 -6.80 0.90 -9.25 1.70 -3 3.65 -5.25 5.30 -6 1.95 -0.95 7.75 -1.60 7.75 -0.90 0 0.30 -0.30 0.65 -0.60 0.75 -0.50 0.20 -0.50 0.30 -0.05 0.30 0.75 0.05 0.45 2.20 -0.75 5.45 -0.85 2.40 -0.60 2.90 1.65 3.25 1.40 0.20 1.35 0.20 -0.35 0.30 -1.25 0.05 -2.10 0.40 -2.75 1.20 -1.20 1.50 -3.65 3.05 -4.90 3.10 -0.55 0.05 -1.65 0.25 -2.45 0.45 -1 0.30 -1.55 0.25 -1.85 -0.25 -0.40 -0.70 -0.50 -0.55 -1.05 1.40 -0.10 0.40 -0.40 0.45 -0.85 0.20z m2.55 -7.90 c0.55 -1.15 1.90 -3 3.05 -4.15 1.10 -1.15 1.55 -1.85 1 -1.55 -2.15 1.15 -5.70 6.45 -5.60 8.40 0 0.70 0.10 0.70 0.30 0.15 0.10 -0.40 0.70 -1.70 1.25 -2.85z"/>
  <path d="M80.15 35.65 c0.45 -0.10 1.25 -0.10 1.75 0 0.45 0.15 0.05 0.25 -0.90 0.25 -0.95 0 -1.35 -0.10 -0.85 -0.25z"/>
  <path d="M84.75 34.30 c2 -1.15 2.75 -1.20 2.75 -0.25 0 0.30 -0.20 0.35 -0.50 0.20 -0.25 -0.15 -1.15 0.05 -1.95 0.50 -2.30 1.15 -2.55 0.85 -0.30 -0.45z"/>
 </g>
 <g fill="#6d37ab">
  <path d="M63.50 43.05 c-0.40 -0.30 -0.90 -0.35 -1.10 -0.25 -0.20 0.15 -0.40 -1.70 -0.40 -4.10 0 -3.90 0.15 -4.65 1.50 -7 0.85 -1.55 1.30 -2.80 1 -2.95 -0.30 -0.20 -0.50 -2.85 -0.50 -6.15 0 -5.25 0.15 -6.10 1.25 -8.15 0.65 -1.30 1.05 -2.45 0.90 -2.65 -0.20 -0.15 -1.05 -0.30 -2 -0.30 -1.30 0 -1.65 -0.20 -1.65 -1 0 -1.15 0.80 -1.25 4.40 -0.45 2.20 0.45 2.75 0.90 5.10 3.75 2.95 3.60 4.95 8 5 10.75 0 1.95 -0.55 2.45 -2.90 2.45 -2.05 0.05 -5.25 1.65 -6.75 3.50 -2.95 3.50 -4.10 7.20 -3.40 10.90 0.25 1.15 0.40 2.10 0.35 2.10 0 0 -0.40 -0.20 -0.80 -0.45z"/>
  <path d="M44.65 32.15 c-1.35 -3.35 -1.50 -12.70 -0.10 -11.90 0.25 0.15 0.30 -0.05 0.15 -0.50 -0.40 -0.95 2.65 -5.60 4.65 -7.05 3.45 -2.55 7.80 -3.85 11 -3.35 2.45 0.40 2.10 1.65 -0.85 3.15 -7.80 3.80 -13 11.40 -13 18.90 0 3.10 -0.75 3.35 -1.85 0.75z m-0.30 -7.75 c-0.10 -0.90 -0.20 -0.20 -0.20 1.60 0 1.80 0.10 2.50 0.20 1.65 0.10 -0.90 0.10 -2.40 0 -3.25z m2.90 -5.40 c0.55 -1.70 5 -5.70 8.10 -7.30 2.35 -1.15 2.70 -1.50 1.75 -1.60 -1.40 -0.20 -4.90 1.45 -4.70 2.30 0.05 0.30 -0.20 0.60 -0.55 0.60 -0.35 0 -1.15 0.55 -1.75 1.25 -0.60 0.70 -1.30 1.25 -1.60 1.25 -0.25 0 -0.50 0.35 -0.50 0.75 0 0.40 -0.20 0.75 -0.50 0.75 -0.25 0 -0.50 0.35 -0.50 0.80 0 0.40 -0.20 0.60 -0.50 0.45 -0.25 -0.15 -0.50 0.15 -0.50 0.70 0 1.35 0.85 1.35 1.25 0.05z"/>
 </g>
 <g fill="#522bc3">
  <path d="M56.60 42.45 c-3.35 -0.65 -8.15 -3.50 -9.70 -5.75 -2.30 -3.35 -2.65 -6 -1.45 -10.65 1.50 -6.10 5.10 -10.70 11.30 -14.45 2.50 -1.55 3.45 -1.85 5.75 -1.80 3.85 0 6.50 0.60 6.50 1.45 0 0.40 -0.70 1.90 -1.60 3.35 -1.45 2.40 -1.65 3.10 -1.80 7.30 -0.20 4.25 -0.10 4.80 0.90 5.85 l1.10 1.15 -2.05 3.40 c-1.90 3.10 -2.05 3.65 -2.05 6.95 l0 3.55 -2.35 0.05 c-1.35 0.05 -3.40 -0.15 -4.55 -0.40z"/>
 </g>
</svg>